<svg id="visual" viewBox="0 0 900 600" width="900" height="600" xmlns="http://www.w3.org/2000/svg" xmlns:xlink="http://www.w3.org/1999/xlink" version="1.1"><rect x="0" y="0" width="900" height="600" fill="#332824"></rect><defs><linearGradient id="grad1_0" x1="33.3%" y1="100%" x2="100%" y2="0%"><stop offset="20%" stop-color="#332824" stop-opacity="1"></stop><stop offset="80%" stop-color="#332824" stop-opacity="1"></stop></linearGradient></defs><defs><linearGradient id="grad2_0" x1="0%" y1="100%" x2="66.7%" y2="0%"><stop offset="20%" stop-color="#332824" stop-opacity="1"></stop><stop offset="80%" stop-color="#332824" stop-opacity="1"></stop></linearGradient></defs><g transform="translate(900, 600)"><path d="M-432.7 0C-384.7 -44.7 -336.7 -89.4 -305.8 -126.7C-274.9 -163.9 -261 -193.7 -244 -244C-226.9 -294.2 -206.8 -364.9 -165.6 -399.7C-124.4 -434.6 -62.2 -433.6 0 -432.7L0 0Z" fill="#e2b9ae"></path></g><g transform="translate(0, 0)"><path d="M432.7 0C430.6 59.6 428.5 119.1 399.7 165.6C371 212 315.5 245.4 267.3 267.3C219.1 289.2 178 299.6 134.7 325.2C91.4 350.9 45.7 391.8 0 432.7L0 0Z" fill="#e2b9ae"></path></g></svg>